HIERARCHY
ROOT Hips
{
	OFFSET 0.00000 0.00000 0.00000
	CHANNELS 6 Xposition Yposition Zposition Zrotation Yrotation Xrotation 
	JOINT LHipJoint
	{
		OFFSET 0 0 0
		CHANNELS 3 Zrotation Yrotation Xrotation
		JOINT LeftUpLeg
		{
			OFFSET 1.57314 -1.85774 0.63783
			CHANNELS 3 Zrotation Yrotation Xrotation
			JOINT LeftLeg
			{
				OFFSET 2.57982 -7.08799 0.00000
				CHANNELS 3 Zrotation Yrotation Xrotation
				JOINT LeftFoot
				{
					OFFSET 2.63993 -7.25315 0.00000
					CHANNELS 3 Zrotation Yrotation Xrotation
					JOINT LeftToeBase
					{
						OFFSET 0.16864 -0.46332 2.12791
						CHANNELS 3 Zrotation Yrotation Xrotation
						End Site
						{
							OFFSET 0.00000 -0.00000 1.09718
						}
					}
				}
			}
		}
	}
	JOINT RHipJoint
	{
		OFFSET 0 0 0
		CHANNELS 3 Zrotation Yrotation Xrotation
		JOINT RightUpLeg
		{
			OFFSET -1.56006 -1.85774 0.63784
			CHANNELS 3 Zrotation Yrotation Xrotation
			JOINT RightLeg
			{
				OFFSET -2.54246 -6.98536 0.00000
				CHANNELS 3 Zrotation Yrotation Xrotation
				JOINT RightFoot
				{
					OFFSET -2.65791 -7.30256 0.00000
					CHANNELS 3 Zrotation Yrotation Xrotation
					JOINT RightToeBase
					{
						OFFSET -0.18435 -0.50650 2.16316
						CHANNELS 3 Zrotation Yrotation Xrotation
						End Site
						{
							OFFSET -0.00000 -0.00000 1.11780
						}
					}
				}
			}
		}
	}
	JOINT LowerBack
	{
		OFFSET 0 0 0
		CHANNELS 3 Zrotation Yrotation Xrotation
		JOINT Spine
		{
			OFFSET -0.00136 1.92812 -0.29638
			CHANNELS 3 Zrotation Yrotation Xrotation
			JOINT Spine1
			{
				OFFSET -0.00528 1.96223 -0.02928
				CHANNELS 3 Zrotation Yrotation Xrotation
				JOINT Neck
				{
					OFFSET 0 0 0
					CHANNELS 3 Zrotation Yrotation Xrotation
					JOINT Neck1
					{
						OFFSET -0.01015 1.75586 0.07797
						CHANNELS 3 Zrotation Yrotation Xrotation
						JOINT Head
						{
							OFFSET 0.05540 1.72452 0.04558
							CHANNELS 3 Zrotation Yrotation Xrotation
							End Site
							{
								OFFSET 0.02170 1.79958 0.00864
							}
						}
					}
				}
				JOINT LeftShoulder
				{
					OFFSET 0 0 0
					CHANNELS 3 Zrotation Yrotation Xrotation
					JOINT LeftArm
					{
						OFFSET 3.16292 1.29277 -0.65728
						CHANNELS 3 Zrotation Yrotation Xrotation
						JOINT LeftForeArm
						{
							OFFSET 5.52302 -0.00000 -0.00000
							CHANNELS 3 Zrotation Yrotation Xrotation
							JOINT LeftHand
							{
								OFFSET 3.58675 -0.00000 -0.00000
								CHANNELS 3 Zrotation Yrotation Xrotation
								JOINT LeftFingerBase
								{
									OFFSET 0 0 0
									CHANNELS 3 Zrotation Yrotation Xrotation
									JOINT LeftHandIndex1
									{
										OFFSET 0.53641 -0.00000 -0.00000
										CHANNELS 3 Zrotation Yrotation Xrotation
										End Site
										{
											OFFSET 0.43247 -0.00000 -0.00000
										}
									}
								}
								JOINT LThumb
								{
									OFFSET 0 0 0
									CHANNELS 3 Zrotation Yrotation Xrotation
									End Site
									{
										OFFSET 0.43907 -0.00000 0.43907
									}
								}
							}
						}
					}
				}
				JOINT RightShoulder
				{
					OFFSET 0 0 0
					CHANNELS 3 Zrotation Yrotation Xrotation
					JOINT RightArm
					{
						OFFSET -3.08296 1.43376 -0.52927
						CHANNELS 3 Zrotation Yrotation Xrotation
						JOINT RightForeArm
						{
							OFFSET -5.84780 -0.00000 0.00000
							CHANNELS 3 Zrotation Yrotation Xrotation
							JOINT RightHand
							{
								OFFSET -3.62717 -0.00000 -0.00000
								CHANNELS 3 Zrotation Yrotation Xrotation
								JOINT RightFingerBase
								{
									OFFSET 0 0 0
									CHANNELS 3 Zrotation Yrotation Xrotation
									JOINT RightHandIndex1
									{
										OFFSET -0.65052 -0.00000 -0.00000
										CHANNELS 3 Zrotation Yrotation Xrotation
										End Site
										{
											OFFSET -0.52446 -0.00000 -0.00000
										}
									}
								}
								JOINT RThumb
								{
									OFFSET 0 0 0
									CHANNELS 3 Zrotation Yrotation Xrotation
									End Site
									{
										OFFSET -0.53247 -0.00000 0.53247
									}
								}
							}
						}
					}
				}
			}
		}
	}
}
MOTION
Frames: 10
Frame Time: .0083333
8.8476 17.7638 -1.7383 -181.8280 67.4665 -184.5150 0.0000 0.0000 0.0000 -17.0966 -7.9242 -14.7149 0.4962 4.5163 12.5339 -0.9849 17.9827 -1.2524 0.1685 2.6446 7.2908 0.0000 0.0000 0.0000 24.0853 16.1781 4.4632 -6.0752 -14.5008 45.2828 0.7751 15.4969 3.6269 -0.1347 -2.3655 6.5170 2.2435 -8.7852 5.6823 4.6751 -11.3123 1.7026 4.2628 -5.5896 -0.8550 4.3992 -16.8987 3.1592 -6.1360 -20.8195 31.8604 -3.6934 -9.2605 8.3993 0.0000 -0.0000 0.0000 -75.9189 -1.3156 28.0850 15.0032 -24.1506 -3.2272 -0.0000 0.0000 -11.8471 35.1380 16.1242 11.0596 -7.1250 0.0000 -0.0000 7.3359 49.3085 0.7832 0.0000 -0.0000 0.0000 84.7991 -16.3976 -8.1333 -7.3235 12.4505 -0.7999 0.0000 0.0000 12.8698 -21.3192 12.3022 -4.7534 7.1250 -0.0000 -0.0000 4.1052 -16.8259 2.7483
8.7377 17.7478 -1.6560 -180.4080 67.7042 -183.0180 0.0000 0.0000 0.0000 -16.2007 -7.9778 -15.1962 0.4727 4.4095 12.2316 -1.0053 18.3088 -0.7778 0.1687 2.6460 7.2948 0.0000 0.0000 0.0000 25.1536 16.2841 5.1757 -5.7587 -14.1903 44.0053 0.6429 14.7000 0.7586 -0.0553 -1.5180 4.1753 2.9055 -8.8279 5.6385 4.8764 -11.3124 1.6980 4.1202 -5.5795 -0.9214 4.3413 -16.7820 3.0975 -6.0922 -20.6742 31.8695 -3.6774 -9.1937 8.4305 0.0000 0.0000 0.0000 -76.0468 -1.2269 28.0689 14.9241 -24.0402 -3.1949 -0.0000 0.0000 -11.7262 35.0594 16.0334 10.9692 -7.1250 0.0000 -0.0000 7.2585 49.1876 0.7532 0.0000 0.0000 0.0000 84.2607 -16.0368 -7.8809 -7.3935 12.5651 -0.8151 0.0000 0.0000 12.6355 -21.2437 12.0735 -4.6487 7.1250 -0.0000 -0.0000 4.1497 -17.0761 2.7555
8.6242 17.7290 -1.5711 -180.2640 68.1373 -182.9050 0.0000 0.0000 0.0000 -15.8264 -7.7814 -15.6039 0.4694 4.3941 12.1882 -1.0024 18.3851 -0.4647 0.1553 2.5390 6.9979 0.0000 0.0000 0.0000 25.5751 16.2280 5.8511 -5.4581 -13.8818 42.7659 0.5874 14.9964 -1.6111 -0.0669 -1.6692 4.5924 3.1231 -8.7439 5.8327 4.8314 -11.1745 1.7887 3.9792 -5.5065 -0.9910 4.5181 -16.7354 2.8600 -6.1497 -20.6344 31.9025 -3.7401 -9.1641 8.4552 0.0000 0.0000 0.0000 -76.0703 -1.2543 28.0690 14.7712 -23.8264 -3.1329 -0.0000 0.0000 -11.4177 34.7092 15.6948 10.6128 -7.1250 0.0000 -0.0000 6.9144 48.7276 0.6385 0.0000 0.0000 0.0000 86.9591 -13.9218 -8.5091 -7.1034 12.0894 -0.7532 0.0000 0.0000 13.0053 -25.7935 10.6857 -5.1206 7.1250 -0.0000 -0.0000 0.8988 -18.1442 0.5743
8.5025 17.7150 -1.4877 -179.6530 68.5836 -182.5260 0.0000 0.0000 0.0000 -15.2066 -7.4997 -15.8297 0.4577 4.3399 12.0349 -1.0171 18.5190 -0.4544 0.1722 2.6732 7.3701 0.0000 0.0000 0.0000 26.1378 16.0320 6.5003 -5.1568 -13.5582 41.4958 0.4330 14.4554 -3.9644 -0.1132 -2.1695 5.9742 3.3906 -8.5871 6.3711 4.9019 -10.8999 1.8799 3.9761 -5.3609 -1.2397 4.4621 -16.7931 2.8136 -6.0978 -20.7345 31.7491 -3.7147 -9.2231 8.4169 0.0000 -0.0000 0.0000 -76.1892 -1.4211 28.0558 14.5194 -23.4723 -3.0319 -0.0000 0.0000 -10.7655 34.5978 15.6457 10.5383 -7.1250 0.0000 -0.0000 6.8040 48.6505 0.6153 0.0000 -0.0000 0.0000 85.5874 -14.5164 -8.4157 -7.4982 12.7363 -0.8380 0.0000 0.0000 13.1289 -20.5123 12.5650 -4.6531 7.1250 -0.0000 -0.0000 4.6742 -16.6227 3.1524
8.3748 17.6983 -1.3914 -177.5180 68.6368 -180.6580 0.0000 0.0000 0.0000 -13.8961 -7.4260 -15.5885 0.3679 3.8963 10.7852 -1.0743 19.1715 -0.0141 0.1559 2.5440 7.0116 0.0000 0.0000 0.0000 27.3445 15.5948 6.7906 -4.8804 -13.2478 40.3033 0.1695 12.6476 -6.4227 -0.0592 -1.5702 4.3193 4.0239 -8.7059 6.9194 5.3043 -10.9295 1.9292 4.1480 -5.3585 -1.5248 3.9231 -16.7019 2.8759 -5.9150 -20.6310 31.5059 -3.5734 -9.2287 8.4074 -0.0000 -0.0000 0.0000 -76.6632 -1.5455 27.3892 14.2378 -23.0736 -2.9206 -0.0000 0.0000 -9.8475 34.7201 15.6633 10.5968 -7.1250 0.0000 -0.0000 6.9263 48.6926 0.6336 -0.0000 -0.0000 0.0000 84.8265 -14.2700 -8.1860 -7.6108 12.9201 -0.8630 0.0000 0.0000 14.1088 -19.1604 13.1176 -4.5088 7.1250 -0.0000 -0.0000 5.6251 -16.1657 3.8554
8.2464 17.6844 -1.2803 -175.9470 68.5765 -179.2280 0.0000 0.0000 0.0000 -12.7343 -7.3728 -15.1892 0.2582 3.2695 9.0299 -1.0806 19.7491 1.2945 0.0671 1.6718 4.5996 0.0000 0.0000 0.0000 28.0495 14.5708 6.4466 -4.6370 -12.9630 39.2301 -0.0259 11.2810 -8.2899 -0.0017 -0.2669 0.7332 4.6345 -8.7764 7.2549 5.3587 -10.9339 2.0479 3.9358 -5.3488 -1.6868 4.0010 -16.6960 2.7889 -5.7970 -20.6685 31.4267 -3.5525 -9.2348 8.3992 0.0000 0.0000 0.0000 -76.4593 -1.7153 27.5036 14.0473 -22.8022 -2.8464 -0.0000 0.0000 -9.8245 34.9063 16.0630 10.9276 -7.1250 0.0000 -0.0000 7.1026 49.1948 0.7381 0.0000 0.0000 0.0000 85.1920 -13.7492 -8.2969 -7.7095 13.0809 -0.8852 0.0000 0.0000 15.4068 -20.1356 12.9322 -4.6910 7.1250 -0.0000 -0.0000 4.9467 -16.2702 3.3754
8.1675 17.6928 -1.2848 -187.2630 70.0302 -190.9960 0.0000 0.0000 0.0000 -17.0121 -4.9987 -12.8209 0.1462 2.4637 6.7889 -1.0192 19.6247 2.1718 0.0097 0.6373 1.7513 0.0000 0.0000 0.0000 23.3079 14.9013 9.4163 -4.4301 -12.7117 38.2988 0.2141 14.3549 -7.3620 -1.7281 -8.2751 23.5530 1.9154 -8.0276 7.4803 3.7387 -10.2747 2.6468 3.6203 -5.0618 -1.0387 4.0750 -16.7845 2.7551 -5.5760 -20.8460 31.4402 -3.5054 -9.2880 8.4248 0.0000 -0.0000 0.0000 -76.1205 -1.9532 28.2858 13.8544 -22.5262 -2.7721 -0.0000 0.0000 -10.2751 35.2117 16.3330 11.2253 -7.1250 0.0000 -0.0000 7.4056 49.5675 0.8381 0.0000 -0.0000 0.0000 85.8952 -12.9237 -8.7377 -7.7493 13.1456 -0.8942 0.0000 0.0000 16.4855 -21.2132 12.9575 -4.9740 7.1250 -0.0000 -0.0000 4.2031 -16.1403 2.8769
8.0459 17.7072 -1.1980 -186.7210 70.5069 -190.4470 0.0000 0.0000 0.0000 -16.0521 -4.2739 -11.9927 0.0545 1.5065 4.1437 -1.0539 20.3497 3.0029 0.0091 0.6146 1.6888 0.0000 0.0000 0.0000 23.5286 13.6397 8.2072 -4.2462 -12.4810 37.4555 -0.1596 12.8712 -10.9693 -0.0573 -1.5452 4.2503 2.1709 -7.9451 7.6611 3.8642 -10.1256 2.7129 3.6243 -4.9813 -1.0967 3.8265 -16.7511 3.0115 -5.3959 -20.8047 31.2312 -3.3835 -9.2881 8.3614 -0.0000 0.0000 0.0000 -76.3942 -2.1877 27.8566 13.4778 -21.9833 -2.6295 -0.0000 0.0000 -9.6830 35.0062 16.0458 10.9561 -7.1250 0.0000 -0.0000 7.2043 49.1925 0.7484 -0.0000 0.0000 0.0000 85.7027 -12.5002 -8.6892 -8.0115 13.5715 -0.9548 0.0000 0.0000 17.0933 -20.6409 13.2032 -4.9175 7.1250 -0.0000 -0.0000 4.6072 -15.9361 3.1755
7.9218 17.7095 -1.1058 -184.3350 71.1745 -188.0730 0.0000 0.0000 0.0000 -14.2453 -3.1825 -10.5152 0.0000 0.0000 0.0000 -1.2094 21.9661 3.6323 0.0169 0.8401 2.3090 0.0000 0.0000 0.0000 24.9078 13.6960 7.6534 -4.1356 -12.3387 36.9409 -0.4150 10.2097 -12.6238 -0.0186 0.8811 -2.4216 3.0762 -7.8810 7.7279 4.1203 -9.9433 2.7994 3.3990 -4.8749 -1.1579 3.6975 -16.7514 3.3496 -5.2645 -20.7958 30.9836 -3.2804 -9.2985 8.2505 -0.0000 -0.0000 0.0000 -76.7237 -2.5303 26.9041 12.9735 -21.2484 -2.4437 -0.0000 0.0000 -8.7875 34.6458 15.4134 10.4072 -7.1250 0.0000 -0.0000 6.8586 48.3863 0.5754 -0.0000 -0.0000 0.0000 85.0934 -12.0219 -8.4801 -8.2097 13.8922 -1.0019 0.0000 0.0000 17.3811 -18.7230 13.9193 -4.6611 7.1250 -0.0000 -0.0000 5.9468 -15.3691 4.1810
7.7994 17.7037 -1.0059 -179.2680 72.3755 -182.5180 0.0000 0.0000 0.0000 -11.6886 -2.4715 -11.8691 0.0000 0.0000 0.0000 -1.2489 21.9083 2.9469 0.0049 0.4525 1.2434 0.0000 0.0000 0.0000 27.2334 15.5780 7.3512 -4.0285 -12.1983 36.4370 -0.5311 8.9065 -13.5094 -0.0095 0.6280 -1.7257 4.7227 -7.4791 7.2541 4.5620 -9.2857 2.7616 2.8642 -4.5250 -1.1440 4.1515 -16.9329 3.4867 -5.3929 -21.0115 30.8523 -3.3532 -9.3732 8.1081 -0.0000 0.0000 0.0000 -76.8394 -2.9469 26.6808 12.5050 -20.5576 -2.2765 -0.0000 0.0000 -7.9711 34.6376 15.4606 10.4345 -7.1250 0.0000 -0.0000 6.8492 48.4402 0.5838 -0.0000 0.0000 0.0000 85.0047 -11.6381 -8.8228 -8.5003 14.3605 -1.0728 0.0000 0.0000 17.4485 -18.3504 14.3108 -4.6871 7.1250 -0.0000 -0.0000 6.2119 -14.9972 4.4194
